# xmcd
#
# Track frame offsets:
# 150
# 15167
# 31354
# 49947
# 72027
# 85837
# 111834
# 132840
# 147176
# 165677
# 198889
#
# Disc length: 4440 seconds
#
# Revision: 1
# Processed by: cddbd v1.5.2PL0 Copyright (c) Steve Scherf et al.
# Submitted via: CedeCatalogueitor 2.6.0.6 http://personales.ya.com/cdcatalogueitor
#
DISCID=8911560b
DTITLE=Interpol - Antics
DYEAR=1900
DGENRE=
TTITLE0=Next Exit
TTITLE1=Evil
TTITLE2=Narc
TTITLE3=Take You On A Cruise
TTITLE4=Slow Hands
TTITLE5=Not Even Jail
TTITLE6=Public Pervert
TTITLE7=C'mere
TTITLE8=Length Of Love
TTITLE9=A Time To Be So Small
TTITLE10=
EXTD=
EXTT0=
EXTT1=
EXTT2=
EXTT3=
EXTT4=
EXTT5=
EXTT6=
EXTT7=
EXTT8=
EXTT9=
EXTT10=
PLAYORDER=
